<svg width="947" height="377" viewBox="0 0 947 377" fill="none" xmlns="http://www.w3.org/2000/svg">
<path d="M131.1 91.6C127.7 89.2 123 87.2 117 85.6C111 84 104.2 83.2 96.6 83.2C84.8 83.2 74.5 86.3 65.7 92.5C56.9 98.7 52.5 107.6 52.5 119.2C52.5 127.4 54.4 134.7 58.2 141.1C62.2 147.3 67.1 152.7 72.9 157.3C78.7 161.7 86.1 166.7 95.1 172.3C106.7 179.9 115.3 185.9 120.9 190.3C126.7 194.7 131.8 200.6 136.2 208C140.8 215.2 143.1 223.8 143.1 233.8C143.1 246.8 139.8 258.2 133.2 268C126.8 277.8 117.8 285.3 106.2 290.5C94.8 295.7 81.9 298.3 67.5 298.3C54.9 298.3 42.7 296.9 30.9 294.1C19.3 291.3 11.5 288.4 7.5 285.4L13.5 244.3H27.9L29.7 274.9C33.7 277.7 39.2 280 46.2 281.8C53.4 283.4 60.7 284.2 68.1 284.2C76.5 284.2 84.6 282.7 92.4 279.7C100.4 276.5 106.9 271.8 111.9 265.6C116.9 259.2 119.4 251.3 119.4 241.9C119.4 231.1 116.1 222.2 109.5 215.2C102.9 208 93.3 200.6 80.7 193C70.1 186.4 61.3 180.4 54.3 175C47.5 169.6 41.6 162.9 36.6 154.9C31.6 146.9 29.1 137.7 29.1 127.3C29.1 116.1 32.2 106.1 38.4 97.3C44.8 88.3 53.3 81.4 63.9 76.6C74.5 71.6 86.1 69.1 98.7 69.1C111.5 69.1 122.4 70.4 131.4 73C140.6 75.4 147.6 78.3 152.4 81.7L145.8 120.1H132.6L131.1 91.6ZM230.475 56.8L198.375 295H175.575L204.675 73.3L187.875 68.5L189.675 58.3L224.175 53.2L230.475 56.8ZM213.975 205.6C219.775 201.4 226.275 197.2 233.475 193C242.475 187.6 249.875 182.8 255.675 178.6C261.475 174.2 266.575 169 270.975 163C275.775 156.6 278.575 149.1 279.375 140.5C280.175 135.9 281.975 132.5 284.775 130.3C287.775 127.9 291.175 126.7 294.975 126.7C298.575 126.7 301.475 127.9 303.675 130.3C306.075 132.7 307.275 135.9 307.275 139.9C307.275 145.3 305.075 151.2 300.675 157.6C295.875 164.4 288.775 171 279.375 177.4C270.175 183.8 259.175 190.6 246.375 197.8L235.275 204.1L277.575 266.8C280.375 270.8 283.275 274 286.275 276.4C289.475 278.8 292.375 280 294.975 280C296.975 280 298.975 279.6 300.975 278.8C302.975 277.8 305.375 275.9 308.175 273.1L313.275 281.5C310.675 285.9 306.775 289.8 301.575 293.2C296.375 296.4 290.375 298 283.575 298C273.575 298 265.375 292.7 258.975 282.1L213.975 205.6ZM365.613 271.3C365.413 272.1 365.313 273.3 365.313 274.9C365.313 277.1 365.713 278.8 366.513 280C367.513 281.2 368.613 281.8 369.813 281.8C373.813 281.8 379.013 278.5 385.413 271.9L389.313 278.5C386.713 282.5 382.513 286.8 376.713 291.4C370.913 295.8 364.513 298 357.513 298C352.113 298 347.813 296.6 344.613 293.8C341.613 291 340.313 286.5 340.713 280.3C341.113 275.1 342.413 264.6 344.613 248.8C347.013 233 348.813 221.1 350.013 213.1L359.613 147.4L340.113 141.1L341.913 131.5L380.013 125.2L386.013 128.2L365.613 271.3ZM377.613 90.4C374.013 90.4 370.813 89.1 368.013 86.5C365.413 83.7 364.113 80.2 364.113 76C364.113 70.8 365.913 66.3 369.513 62.5C373.313 58.7 377.313 56.8 381.513 56.8C385.713 56.8 389.013 58.1 391.413 60.7C394.013 63.3 395.313 66.7 395.313 70.9C395.313 76.3 393.513 80.9 389.913 84.7C386.513 88.5 382.413 90.4 377.613 90.4ZM468.984 165.4C477.584 153.6 487.684 143.9 499.284 136.3C511.084 128.5 522.684 124.6 534.084 124.6C544.884 124.6 553.184 128 558.984 134.8C564.784 141.4 567.684 152.4 567.684 167.8C567.684 176.6 565.584 191.7 561.384 213.1L559.884 220.9C559.684 222.5 559.184 225.1 558.384 228.7C554.784 249.7 552.684 264 552.084 271.6C551.684 278.4 552.884 281.8 555.684 281.8C559.684 281.8 564.384 279.2 569.784 274L573.684 280.9C571.684 283.9 567.784 287.5 561.984 291.7C556.184 295.9 549.884 298 543.084 298C532.484 298 527.184 292.4 527.184 281.2C527.184 276.8 527.784 270.9 528.984 263.5C530.184 256.1 531.484 248.8 532.884 241.6L535.584 228.1L537.384 218.8C539.584 206.6 541.184 197 542.184 190C543.184 183 543.684 176.2 543.684 169.6C543.684 159.8 542.184 153.1 539.184 149.5C536.184 145.7 530.984 143.8 523.584 143.8C514.984 143.8 505.184 148 494.184 156.4C483.384 164.6 474.184 174.5 466.584 186.1L451.884 295H428.484L447.984 148.6L433.584 141.7L435.684 130.9L467.184 124.6L472.884 127.6L468.984 165.4ZM643.055 271.3C642.855 272.1 642.755 273.3 642.755 274.9C642.755 277.1 643.155 278.8 643.955 280C644.955 281.2 646.055 281.8 647.255 281.8C651.255 281.8 656.455 278.5 662.855 271.9L666.755 278.5C664.155 282.5 659.955 286.8 654.155 291.4C648.355 295.8 641.955 298 634.955 298C629.555 298 625.255 296.6 622.055 293.8C619.055 291 617.755 286.5 618.155 280.3C618.555 275.1 619.855 264.6 622.055 248.8C624.455 233 626.255 221.1 627.455 213.1L637.055 147.4L617.555 141.1L619.355 131.5L657.455 125.2L663.455 128.2L643.055 271.3ZM655.055 90.4C651.455 90.4 648.255 89.1 645.455 86.5C642.855 83.7 641.555 80.2 641.555 76C641.555 70.8 643.355 66.3 646.955 62.5C650.755 58.7 654.755 56.8 658.955 56.8C663.155 56.8 666.455 58.1 668.855 60.7C671.455 63.3 672.755 66.7 672.755 70.9C672.755 76.3 670.955 80.9 667.355 84.7C663.955 88.5 659.855 90.4 655.055 90.4ZM733.526 112.3C735.326 101.1 739.126 90.8 744.926 81.4C750.926 71.8 758.126 64.3 766.526 58.9C774.926 53.3 783.626 50.5 792.626 50.5C802.226 50.5 810.026 51.7 816.026 54.1L809.426 74.2C803.026 69.8 795.926 67.7 788.126 67.9C779.726 67.9 772.826 71.7 767.426 79.3C762.026 86.7 758.426 96.8 756.626 109.6L754.826 126.1H792.926L791.126 143.2H752.726L731.426 304.3C728.826 324.5 723.026 340.5 714.026 352.3C705.226 364.1 693.726 370.2 679.526 370.6C674.726 370.8 670.026 370.7 665.426 370.3C660.826 369.9 657.426 369.4 655.226 368.8L661.226 348.4C662.626 349.2 666.026 350.2 671.426 351.4C676.826 352.8 681.326 353.5 684.926 353.5C691.126 353.5 695.926 350.1 699.326 343.3C702.726 336.5 705.126 326.9 706.526 314.5L728.726 143.2H708.026L710.426 133.9L731.426 126.7L733.526 112.3ZM816.865 152.5C816.065 148.7 815.065 146.1 813.865 144.7C812.865 143.3 811.465 142.6 809.665 142.6C807.865 142.6 805.965 143.2 803.965 144.4C802.165 145.6 799.765 147.7 796.765 150.7L793.165 142.9C794.965 139.7 798.665 136 804.265 131.8C810.065 127.4 815.965 125.2 821.965 125.2C828.165 125.2 832.565 126.9 835.165 130.3C837.765 133.5 839.465 138.5 840.265 145.3L855.865 257.5L860.065 298.3L884.365 251.8C887.565 245 890.065 240 891.865 236.8C900.465 219.6 906.765 205.3 910.765 193.9C914.965 182.3 917.065 170.3 917.065 157.9C917.065 155.3 916.665 152.9 915.865 150.7C915.065 148.5 914.565 147.2 914.365 146.8C912.765 142.8 911.965 139.8 911.965 137.8C911.965 133.6 912.965 130.5 914.965 128.5C917.165 126.5 919.965 125.5 923.365 125.5C928.565 125.5 932.565 127.8 935.365 132.4C938.365 137 939.865 143.5 939.865 151.9C939.865 164.7 936.965 178.1 931.165 192.1C925.565 206.1 917.765 222.5 907.765 241.3L902.365 251.5C891.565 273.3 881.565 291.9 872.365 307.3C863.365 322.7 855.565 334.4 848.965 342.4C836.565 360.2 819.965 369.1 799.165 369.1C794.965 369.1 790.065 368.6 784.465 367.6C778.865 366.8 774.565 365.8 771.565 364.6L777.265 345.4C784.865 349.2 793.165 351.1 802.165 351.1C810.565 351.1 819.565 347.5 829.165 340.3C838.965 333.1 847.665 321.9 855.265 306.7H843.865L816.865 152.5Z" fill="black"/>
</svg>
