<?xml version="1.0" encoding="UTF-8"?>
<svg xmlns="http://www.w3.org/2000/svg" width="125" height="125" viewBox="0 0 125 125" fill="none">
  <mask id="mask0_689_1497" style="mask-type:alpha" maskUnits="userSpaceOnUse" x="0" y="0" width="125" height="125">
    <rect width="125" height="125" fill="#D9D9D9"></rect>
  </mask>
  <g mask="url(#mask0_689_1497)">
    <path d="M44.95 85.6454C42.4538 78.864 39.4917 74.0759 34.7226 69.1159C27.7878 61.8812 23.9813 52.4009 24.0001 42.4144C24.0376 22.3087 40.3709 5.10293 60.4119 4.05675C71.0884 3.48765 81.2469 7.21403 88.9877 14.5526C96.7335 21.8981 101 31.8197 101 42.4911C101 52.4452 97.1986 61.8949 90.2962 69.0972C86.9123 72.6174 84.0549 76.6624 81.8007 81.1197C80.8363 83.0298 80.3945 83.7848 79.718 85.6454" stroke="#D9D9D9"></path>
    <path d="M79.6635 85.6992V93.6141H45.0039V85.6992H79.6635Z" stroke="#D9D9D9"></path>
    <path d="M80.5177 106.265H44.3307C43.6425 106.265 43.0859 105.709 43.0859 105.02V94.9674C43.0859 94.2792 43.6425 93.7227 44.3307 93.7227H80.5177C81.2059 93.7227 81.7624 94.2792 81.7624 94.9674V105.02C81.7624 105.709 81.2059 106.265 80.5177 106.265Z" stroke="#D9D9D9"></path>
    <path d="M49.582 106.197C49.582 113.275 55.3411 119.034 62.419 119.034C69.5089 119.034 75.2765 113.275 75.2765 106.197" stroke="#D9D9D9"></path>
    <path d="M57.8767 85.571L48.5263 57.5198C48.2381 56.6552 48.3585 55.7065 48.8536 54.9413L51.2133 51.2945C52.0215 50.0455 53.862 50.0847 54.6163 51.367L55.7071 53.2213C56.4804 54.5359 58.3815 54.5359 59.1548 53.2213L60.1645 51.5048C60.9378 50.1902 62.839 50.1902 63.6123 51.5048L64.7749 53.4812C65.5114 54.7333 67.2949 54.8073 68.1327 53.6205L70.0608 50.889C70.8577 49.7601 72.5319 49.7601 73.3287 50.889L76.2134 54.9756C76.7383 55.7192 76.8972 56.6609 76.6454 57.5355L68.5746 85.571" stroke="#D9D9D9"></path>
  </g>
</svg>
