<?xml version="1.0" encoding="UTF-8"?>
<svg xmlns="http://www.w3.org/2000/svg" width="125" height="125" viewBox="0 0 125 125" fill="none">
  <mask id="mask0_689_1428" style="mask-type:alpha" maskUnits="userSpaceOnUse" x="0" y="0" width="125" height="125">
    <rect width="125" height="125" fill="#D9D9D9"></rect>
  </mask>
  <g mask="url(#mask0_689_1428)">
    <path d="M116 122.62C110.59 122.62 98.1922 120.515 91.8761 112.093C85.8817 115.31 70.9979 121.48 59.4185 120.427C44.9441 119.111 25.2064 119.55 16.434 108.584C7.66169 97.6188 6.34637 53.7572 22.1366 39.2828C34.7687 27.7033 37.9253 22.1768 37.9253 22.1768" stroke="#D9D9D9"></path>
    <path d="M36.1719 75.2492C43.0435 71.0092 59.2431 62.5293 69.0681 62.5293C78.8931 62.5293 90.999 71.8865 95.8237 76.565C97.8706 73.2023 104.508 65.8628 114.684 63.4065" stroke="#D9D9D9"></path>
    <path d="M43.6317 71.3019C43.7779 65.7461 42.8422 53.1432 37.9297 47.178L43.6317 40.1602" stroke="#D9D9D9"></path>
    <circle cx="59.4191" cy="23.9308" r="21.4308" stroke="#D9D9D9"></circle>
    <circle cx="59.418" cy="23.9307" r="11.7813" stroke="#D9D9D9"></circle>
    <path d="M21.1829 89.7236C20.0133 94.256 21.0075 104.373 34.3414 108.584" stroke="#D9D9D9"></path>
  </g>
</svg>
