<?xml version="1.0" encoding="UTF-8"?>
<svg xmlns="http://www.w3.org/2000/svg" width="125" height="125" viewBox="0 0 125 125" fill="none">
  <mask id="mask0_689_1438" style="mask-type:alpha" maskUnits="userSpaceOnUse" x="0" y="0" width="125" height="125">
    <rect width="125" height="125" fill="#D9D9D9"></rect>
  </mask>
  <g mask="url(#mask0_689_1438)">
    <path d="M89.3 45.207V45.5479L89.6172 45.6724C104.187 51.3941 114.5 65.5842 114.5 82.1819C114.5 103.837 96.9455 121.391 75.2909 121.391C53.6363 121.391 36.0818 103.837 36.0818 82.1819C36.0818 77.2678 36.9856 72.5659 38.6356 68.2326L38.7508 67.93L38.5219 67.7011L22.5717 51.7509C21.7439 50.9231 20.4016 50.9231 19.5737 51.7509C19.1364 52.1883 18.4273 52.1883 17.9899 51.7509L11.7678 45.5288C11.182 44.943 11.182 43.9933 11.7678 43.4075L30.7893 24.3859C31.3751 23.8002 32.3248 23.8002 32.9106 24.3859L39.7055 31.1808C40.2483 31.7236 40.2483 32.6037 39.7055 33.1464C38.7722 34.0798 38.7722 35.593 39.7055 36.5263L52.7665 49.5873L53.0579 49.8787L53.3995 49.6483C55.6418 48.1365 58.0487 46.8505 60.5876 45.8228L60.9 45.6963V45.3593V16.2182C60.9 14.8375 59.7807 13.7182 58.4 13.7182H56.2909C55.4625 13.7182 54.7909 13.0466 54.7909 12.2182V4C54.7909 3.17157 55.4625 2.5 56.2909 2.5H93.5273C94.3557 2.5 95.0273 3.17157 95.0273 4V12.2182C95.0273 13.0466 94.3557 13.7182 93.5273 13.7182H91.8C90.4193 13.7182 89.3 14.8375 89.3 16.2182V45.207Z" stroke="#D9D9D9"></path>
    <circle cx="52.7615" cy="90.5818" r="4.08182" stroke="#D9D9D9"></circle>
    <circle cx="70.3279" cy="106.619" r="4.08182" stroke="#D9D9D9"></circle>
    <circle cx="93.2381" cy="92.8728" r="4.08182" stroke="#D9D9D9"></circle>
    <path d="M35.9648 84.0902C39.3528 80.4116 47.0967 71.4902 54.0232 71.4902C62.6814 71.4902 64.1871 77.7964 75.8568 77.7964C87.5264 77.7964 85.6442 71.4902 93.9259 71.4902C102.208 71.4902 112.361 82.1196 114.619 84.0902" stroke="#D9D9D9"></path>
  </g>
</svg>
